<?xml version="1.0" encoding="UTF-8" standalone="no"?>
<!DOCTYPE svg PUBLIC "-//W3C//DTD SVG 1.1//EN" "http://www.w3.org/Graphics/SVG/1.1/DTD/svg11.dtd">
<svg version="1.1" xmlns="http://www.w3.org/2000/svg" xmlns:xlink="http://www.w3.org/1999/xlink" preserveAspectRatio="xMidYMid meet" viewBox="0 0 391 356" width="391" height="356"><defs><path d="M258.81 182.06C258.81 182.06 303.92 169.96 319.81 148.01C335.71 126.07 341.32 113.17 343 103.78C344.68 94.39 343.45 93.32 341.33 92.77C339.2 92.22 335.79 96.62 335.79 96.62C335.79 96.62 339.28 83.17 333.8 80.99C328.32 78.81 323.55 76.82 312.67 83.82C301.78 90.82 287.95 106.09 276.19 123.84C264.43 141.58 249.66 166.46 249.66 166.46C249.66 166.46 252.49 167.2 254.41 171.47C256.32 175.75 258.81 182.06 258.81 182.06" id="a1dSA8x8Ni"></path><path d="M254.56 171.4C256.29 175.28 258.54 180.91 258.91 181.86C261.73 181.08 304.44 168.95 319.68 147.92C333.5 128.83 340.86 114.8 342.84 103.75C344.5 94.49 343.3 93.45 341.28 92.93C341.18 92.9 341.06 92.89 340.94 92.89C338.92 92.89 335.95 96.69 335.92 96.72C335.89 96.77 335.72 96.98 335.43 97.36C335.55 96.89 335.62 96.63 335.63 96.58C335.67 96.45 339.02 83.25 333.74 81.15C333.73 81.14 333.62 81.1 333.6 81.09C331.06 80.08 328.65 79.12 325.71 79.12C322 79.12 317.89 80.66 312.76 83.96C302.08 90.83 288.12 106.14 276.33 123.93C265.23 140.68 251.27 164.09 249.91 166.37C250.61 166.63 252.91 167.72 254.56 171.4ZM258.71 182.26C258.68 182.18 258.66 182.13 258.66 182.12C258.63 182.06 256.14 175.76 254.25 171.54C252.4 167.4 249.65 166.63 249.62 166.62C249.6 166.62 249.53 166.6 249.41 166.57C249.47 166.45 249.51 166.39 249.52 166.38C249.67 166.13 264.42 141.29 276.05 123.75C287.86 105.92 301.86 90.57 312.58 83.68C317.76 80.34 321.94 78.79 325.71 78.79C328.71 78.79 331.15 79.76 333.73 80.78C333.74 80.79 333.85 80.83 333.86 80.84C338.75 82.78 336.77 93.11 336.12 95.96C337.06 94.86 339.24 92.55 340.94 92.55C341.09 92.55 341.23 92.57 341.37 92.61C343.56 93.18 344.87 94.26 343.17 103.81C341.18 114.91 333.8 128.98 319.95 148.11C304.2 169.85 259.31 182.1 258.86 182.22C258.85 182.22 258.8 182.24 258.71 182.26" id="bD684n7LM"></path><path d="M246.49 164.13C246.49 164.13 263.86 126.32 270.49 118.21C277.13 110.11 306.87 77.03 316.31 72.68C325.75 68.32 319.43 55.35 318.71 49.12C318 42.89 307.57 33.38 297.85 31.61C288.13 29.85 275.86 33.46 272.45 37.87C269.04 42.27 264.53 50.93 264.53 50.93C264.53 50.93 261.81 78.88 257.85 94.13C253.89 109.37 245.92 128.46 241.93 138.01C237.94 147.55 237.71 154.29 237.71 154.29C238.01 154.47 239.54 155.37 242.29 156.99L246.49 164.13" id="aJ3frKvWL"></path><path d="M242.44 156.91C244.86 161.02 246.2 163.31 246.47 163.77C248.1 160.23 264.1 125.76 270.36 118.11C276.96 110.06 306.78 76.89 316.24 72.52C323.45 69.2 321.33 60.86 319.63 54.16C319.16 52.3 318.71 50.54 318.55 49.14C317.85 43.08 307.68 33.57 297.82 31.78C296.16 31.48 294.37 31.32 292.5 31.32C284.35 31.32 275.42 34.31 272.58 37.97C269.32 42.19 264.98 50.42 264.69 50.97C264.58 52.08 261.87 79.31 258.01 94.17C254.05 109.43 245.97 128.78 242.08 138.07C238.41 146.86 237.93 153.33 237.88 154.2C237.88 154.2 239.4 155.1 242.44 156.91ZM246.51 164.49L242.17 157.11L237.54 154.38C237.54 154.32 237.54 154.29 237.54 154.29C237.54 154.22 237.82 147.41 241.78 137.94C245.66 128.65 253.74 109.33 257.69 94.08C261.6 79.02 264.33 51.19 264.36 50.91C264.36 50.9 264.38 50.86 264.38 50.85C264.43 50.76 268.94 42.13 272.32 37.77C275.21 34.03 284.26 30.99 292.5 30.99C294.39 30.99 296.2 31.14 297.88 31.45C307.86 33.26 318.17 42.93 318.88 49.1C319.04 50.48 319.48 52.23 319.95 54.08C321.6 60.54 323.85 69.39 316.38 72.83C306.97 77.17 277.21 110.28 270.62 118.32C264.07 126.31 246.81 163.82 246.64 164.2C246.63 164.22 246.59 164.31 246.51 164.49" id="bQFgaoMvU"></path><path d="M230.47 150.15C230.47 150.15 247.61 116.75 252.97 92.86C258.33 68.97 261.89 31.99 257.89 21.19C253.89 10.38 239.76 3.69 231.23 4.5C222.71 5.31 213.22 15.7 209.81 20.1C206.4 24.51 200.17 48.52 200.51 79.25C200.85 109.97 205.8 124.1 210.54 132.89C215.29 141.67 217.73 146.84 217.73 146.84C217.73 146.84 217.73 146.84 224.1 148.49C230.47 150.15 230.47 150.15 230.47 150.15" id="c8rejv4k7k"></path><path d="M230.38 149.95C231.51 147.74 247.68 115.71 252.81 92.82C258.29 68.39 261.64 31.8 257.73 21.24C254.1 11.44 241.62 4.6 232.68 4.6C232.19 4.6 231.71 4.63 231.25 4.67C223.34 5.42 214.13 14.79 209.94 20.2C206.53 24.61 200.33 48.78 200.67 79.24C201.02 110.92 206.21 124.51 210.69 132.81C215.09 140.95 217.53 146.05 217.84 146.7C220.35 147.35 229.13 149.63 230.38 149.95ZM230.56 150.34L217.61 146.98C217.59 146.94 217.58 146.92 217.57 146.91C217.55 146.86 215.08 141.65 210.4 132.97C205.9 124.63 200.69 110.99 200.34 79.25C200 48.7 206.24 24.44 209.68 20C213.9 14.54 223.19 5.1 231.22 4.34C231.69 4.29 232.18 4.27 232.68 4.27C241.73 4.27 254.37 11.19 258.04 21.13C261.97 31.73 258.63 68.42 253.14 92.9C247.83 116.54 230.79 149.89 230.62 150.22C230.61 150.23 230.59 150.27 230.56 150.34" id="bGbnXZPN4"></path><path d="M210.83 144.29C208.22 138.63 206.77 135.48 206.48 134.85C206.48 134.85 196.18 116.31 195 88.8C193.83 61.29 198.13 35.96 198.13 35.96C198.13 35.96 190.48 18.87 181.83 14.35C173.18 9.84 165.31 16.87 165.31 16.87C165.31 16.87 165.2 8.55 159.26 8.13C153.33 7.71 147.76 14.58 147.76 14.58C147.76 14.58 139.45 11.67 135.81 22.81C132.16 33.96 123.68 49.14 126.99 56.8C130.29 64.45 136.79 71.43 136.79 71.43C136.79 71.43 154.82 91.22 162.79 106.14C170.77 121.05 173.62 139.17 173.62 139.17C174.04 139.69 176.15 142.25 179.94 146.86C179.37 150.79 179.05 152.98 178.99 153.41C182.46 152.21 184.88 150.73 191.63 148.38C199.42 145.68 210.83 144.29 210.83 144.29" id="bq2kG9t7V"></path><path d="M180.11 146.81L180.1 146.88C179.56 150.65 179.26 152.75 179.2 153.16C180.53 152.69 181.73 152.16 183.11 151.56C185.13 150.69 187.64 149.59 191.57 148.23C198.69 145.75 208.93 144.37 210.58 144.16C210.16 143.23 206.75 135.85 206.33 134.92C206.23 134.75 196 116.04 194.84 88.81C193.7 62.18 197.75 37.28 197.96 35.99C197.51 35 190.04 18.82 181.75 14.5C179.85 13.51 177.84 13.01 175.76 13.01C169.95 13.01 165.46 16.95 165.42 16.99C165.4 17.01 165.31 17.09 165.15 17.23C165.14 17.01 165.14 16.89 165.14 16.87C165.14 16.79 164.96 8.7 159.25 8.3C159.08 8.29 158.9 8.28 158.73 8.28C153.15 8.28 147.95 14.62 147.89 14.69C147.89 14.69 147.86 14.72 147.82 14.78C147.75 14.75 147.72 14.74 147.71 14.74C147.7 14.74 146.74 14.41 145.35 14.41C142.33 14.41 138.25 15.87 135.96 22.87C134.99 25.85 133.69 29.07 132.31 32.47C128.59 41.67 124.75 51.19 127.14 56.73C130.39 64.27 136.85 71.25 136.91 71.32C137.09 71.52 155.05 91.3 162.94 106.06C170.64 120.47 173.61 138.08 173.78 139.1C173.78 139.1 175.89 141.67 180.11 146.81ZM178.79 153.66L179.76 146.91L173.46 139.24C173.46 139.22 173.45 139.2 173.45 139.2C173.43 139.02 170.51 120.93 162.65 106.22C154.77 91.49 136.85 71.74 136.67 71.54C136.6 71.47 130.11 64.46 126.83 56.86C124.39 51.19 128.26 41.61 132 32.35C133.37 28.95 134.67 25.74 135.65 22.76C138.12 15.2 142.79 14.07 145.35 14.07C146.54 14.07 147.41 14.3 147.71 14.39C148.39 13.58 153.7 7.57 159.27 7.97C164.59 8.34 165.35 14.94 165.46 16.53C166.51 15.68 170.63 12.67 175.76 12.67C177.89 12.67 179.96 13.19 181.91 14.21C190.51 18.69 198.21 35.72 198.29 35.9C198.29 35.9 198.29 35.91 198.31 35.94C198.3 35.97 198.3 35.99 198.3 35.99C198.25 36.25 194.01 61.62 195.17 88.8C196.33 115.95 206.52 134.59 206.62 134.77C206.92 135.42 208.4 138.64 211.08 144.43C210.94 144.45 210.86 144.46 210.85 144.46C210.74 144.47 199.37 145.87 191.68 148.54C187.76 149.9 185.26 150.99 183.25 151.87C181.77 152.51 180.5 153.07 179.05 153.57C179.03 153.58 178.94 153.61 178.79 153.66" id="cHZIWpxDL"></path><path d="M174.23 157.85C174.23 157.85 167.06 128.67 157.39 108.51C147.73 88.35 128.12 73.71 121.31 68.93C114.5 64.14 92.83 48.63 85.81 49.48C78.79 50.33 74.09 59.7 74.09 59.7C74.09 59.7 62.61 54.45 61.09 66.14C59.56 77.84 66.3 98.48 83.37 114.24C100.43 130.01 139.49 159.03 147.91 163.48C156.33 167.94 158.06 172.92 158.06 172.92C158.06 172.92 159.44 167.06 163.44 164.49C168.88 160.99 174.23 157.85 174.23 157.85" id="fACB9EQPj"></path><path d="M61.25 66.17C59.67 78.33 66.79 98.71 83.48 114.12C100.31 129.66 139.54 158.87 147.99 163.34C155.01 167.05 157.39 171.08 158.03 172.41C158.46 170.96 160 166.5 163.35 164.35C168.31 161.16 173.26 158.23 174.04 157.76C173.52 155.7 166.48 127.85 157.24 108.59C148.32 89.97 130.84 75.83 121.21 69.06C121.13 69 120.45 68.52 120.37 68.46C113.05 63.31 93.63 49.62 86.4 49.62C86.2 49.62 86.01 49.63 85.83 49.65C78.98 50.48 74.29 59.68 74.24 59.77C74.24 59.78 74.21 59.83 74.17 59.91C74.08 59.87 74.03 59.85 74.03 59.85C74 59.84 71.45 58.69 68.66 58.69C64.39 58.69 61.9 61.2 61.25 66.17ZM158.09 173.51C157.98 173.19 157.92 173.01 157.91 172.97C157.89 172.92 156.09 167.99 147.83 163.63C139.37 159.16 100.1 129.92 83.25 114.36C66.48 98.88 59.33 78.37 60.92 66.12C61.76 59.7 65.59 58.36 68.66 58.36C71.14 58.36 73.43 59.24 74.02 59.48C74.64 58.31 79.24 50.11 85.79 49.32C85.98 49.29 86.19 49.28 86.4 49.28C93.73 49.28 113.22 63.02 120.56 68.19C120.64 68.25 121.32 68.73 121.41 68.79C131.06 75.58 148.58 89.76 157.55 108.44C167.11 128.39 174.32 157.51 174.39 157.81C174.4 157.81 174.41 157.85 174.42 157.93C174.36 157.96 174.32 157.99 174.32 157.99C174.26 158.02 168.91 161.17 163.53 164.63C159.64 167.13 158.24 172.9 158.22 172.96C158.22 172.99 158.17 173.18 158.09 173.51" id="cmS3JGW0X"></path><path d="M154.13 176.43C154.13 176.43 121.01 149.7 111.93 143.95C102.84 138.19 74.66 115.76 71.85 112.01C69.05 108.26 57.83 106.86 48.85 112.84C39.86 118.82 33.75 127.81 29.63 132.04C25.51 136.26 16.86 131.74 19.06 143.65C21.26 155.56 39.09 165.47 54.8 174.84C70.5 184.2 94.57 190.45 112.14 189.72C129.71 188.99 150.82 189.17 150.82 189.17C151.04 188.33 152.14 184.08 154.13 176.43" id="b3CCSATMzg"></path><path d="M48.94 112.98C42.42 117.31 37.32 123.36 33.59 127.78C32.14 129.5 30.88 131 29.75 132.15C28.31 133.63 26.36 134.05 24.48 134.47C20.9 135.25 17.8 135.93 19.22 143.62C21.28 154.75 36.93 164.04 52.07 173.02C53.01 173.58 53.95 174.14 54.88 174.69C69.61 183.48 91.98 189.61 109.29 189.61C110.26 189.61 111.21 189.59 112.13 189.55C123.94 189.06 137.46 188.99 144.47 188.99C147.84 188.99 150.14 189 150.69 189.01C151.02 187.76 153.61 177.75 153.94 176.49C152.08 174.99 120.59 149.63 111.84 144.09C102.63 138.25 74.51 115.83 71.72 112.11C70.28 110.18 66.58 108.94 62.29 108.94C57.59 108.94 52.85 110.37 48.94 112.98ZM109.29 189.94C91.93 189.94 69.48 183.79 54.71 174.98C53.78 174.43 52.84 173.87 51.9 173.31C36.7 164.29 20.98 154.95 18.9 143.68C17.42 135.68 20.81 134.93 24.41 134.14C26.25 133.74 28.14 133.32 29.51 131.92C30.63 130.77 31.89 129.28 33.34 127.56C37.08 123.13 42.2 117.06 48.75 112.7C52.72 110.06 57.53 108.61 62.29 108.61C66.68 108.61 70.49 109.9 71.99 111.91C74.76 115.62 102.82 137.98 112.02 143.81C121.01 149.5 153.9 176.03 154.23 176.3C154.24 176.31 154.27 176.33 154.32 176.37L154.29 176.47L150.95 189.34C150.87 189.34 150.83 189.34 150.82 189.34C150.8 189.34 148.34 189.32 144.47 189.32C137.47 189.32 123.95 189.39 112.15 189.88C111.22 189.92 110.26 189.94 109.29 189.94" id="a2FB5gs2Ka"></path><path d="M148.94 196.43C148.94 196.43 131.76 194.67 125.88 194.79C120 194.91 100.25 195.7 88.98 193.53C77.71 191.36 55.24 184.78 55.24 184.78C55.24 184.78 28.04 190.57 20.54 196.17C13.04 201.79 9.74 214.53 9.74 214.53C9.74 214.53 4.02 219.09 6.98 225.15C9.94 231.21 17.43 233.91 17.43 233.91C17.43 233.91 18.36 242.46 25.44 244.3C32.52 246.13 39.6 247.97 39.6 247.97C39.6 247.97 72.41 229.28 90.89 225.01C109.38 220.74 147.04 215.4 147.04 215.4C147.17 214.13 147.8 207.81 148.94 196.43" id="d2Wh3XO3yY"></path><path d="M20.64 196.31C13.28 201.82 9.93 214.44 9.9 214.57C9.9 214.57 9.89 214.59 9.88 214.63C9.86 214.65 9.84 214.66 9.84 214.66C9.78 214.7 4.26 219.21 7.13 225.08C10.03 231 17.41 233.72 17.49 233.75C17.49 233.75 17.53 233.76 17.58 233.78C17.59 233.85 17.6 233.88 17.6 233.89C17.61 233.97 18.59 242.35 25.48 244.13C26.89 244.5 38.16 247.43 39.57 247.79C41.15 246.9 72.93 228.99 90.86 224.85C108.6 220.75 144.44 215.6 146.89 215.25C147.07 213.38 148.57 198.45 148.76 196.58C146.97 196.4 131.37 194.86 125.88 194.96C125.28 194.97 124.53 194.99 123.67 195.01C120.83 195.09 116.55 195.2 111.85 195.2C101.83 195.2 94.13 194.69 88.95 193.69C78.03 191.59 56.32 185.26 55.23 184.95C54.03 185.21 27.9 190.89 20.64 196.31ZM39.62 248.15C31.09 245.93 26.34 244.7 25.4 244.46C18.71 242.72 17.42 235.01 17.28 234.03C16.39 233.68 9.61 230.9 6.83 225.22C3.98 219.4 9.06 214.88 9.59 214.43C9.83 213.53 13.23 201.44 20.44 196.04C27.89 190.47 54.93 184.67 55.2 184.61C55.21 184.61 55.22 184.61 55.25 184.6C55.27 184.61 55.28 184.61 55.29 184.61C55.51 184.68 77.88 191.23 89.01 193.37C94.17 194.36 101.85 194.86 111.85 194.86C116.54 194.86 120.82 194.75 123.66 194.68C124.53 194.66 125.27 194.64 125.88 194.63C126.07 194.62 126.28 194.62 126.49 194.62C132.8 194.62 148.79 196.25 148.96 196.27C148.97 196.27 149.02 196.27 149.12 196.28L149.1 196.45L147.19 215.54C147.11 215.56 147.07 215.56 147.06 215.56C146.69 215.62 109.2 220.95 90.93 225.17C72.68 229.39 40.01 247.93 39.68 248.11C39.68 248.12 39.66 248.13 39.62 248.15" id="c7n3eoP2N"></path><path d="M147.69 221.61C147.69 221.61 97.49 226.72 78.14 235.3C58.79 243.88 32.96 256.07 32.72 262.81C32.49 269.55 34.69 281.46 47.59 287.07C60.49 292.68 81.26 291.27 89.83 284.43C98.41 277.59 111.8 259.91 124.95 251.98C138.09 244.06 154.14 234.62 154.14 234.62C153.71 233.75 151.56 229.42 147.69 221.61" id="jhFHM7UKa"></path><path d="M147.6 221.79C144.9 222.07 96.86 227.18 78.21 235.45C58.86 244.03 33.12 256.2 32.89 262.82C32.75 266.9 33.39 280.71 47.65 286.92C52.78 289.15 59.47 290.38 66.5 290.38C66.5 290.38 66.5 290.38 66.5 290.38C76.13 290.38 85.03 288.05 89.73 284.3C92.96 281.72 96.98 277.5 101.23 273.02C108.47 265.41 116.67 256.78 124.86 251.84C137.22 244.39 152.35 235.48 153.92 234.56C152.66 232 148.86 224.34 147.6 221.79ZM66.5 290.71C66.5 290.71 66.5 290.71 66.5 290.71C59.43 290.71 52.69 289.47 47.52 287.22C33.06 280.93 32.41 266.94 32.56 262.81C32.79 256.08 57 244.49 78.07 235.15C97.22 226.65 147.17 221.5 147.68 221.45C147.68 221.45 147.72 221.44 147.79 221.43L147.84 221.54L154.36 234.69C154.28 234.73 154.24 234.76 154.23 234.76C154.07 234.86 138.03 244.29 125.03 252.12C116.88 257.04 108.69 265.65 101.47 273.25C97.21 277.73 93.19 281.97 89.94 284.56C85.18 288.35 76.2 290.71 66.5 290.71" id="c2Tc13iDHx"></path><path d="M159.1 238.82C159.1 238.82 126.26 257.61 116.77 267.99C107.27 278.38 97.62 283.55 98.45 300.71C99.29 317.87 107.24 322.2 119.33 319.29C131.42 316.38 129.21 321.97 143.77 312.47C158.32 302.96 172.2 287.35 179.71 275.86C187.23 264.36 189.96 256.76 189.96 256.76C189.96 256.76 179.71 252.59 176.35 250.96C172.99 249.34 159.1 238.82 159.1 238.82" id="h2sQhyYQdA"></path><path d="M116.89 268.11C115.05 270.12 113.2 271.94 111.42 273.69C104.19 280.8 97.95 286.94 98.62 300.7C99.25 313.66 103.95 319.96 112.99 319.96C114.87 319.96 116.99 319.68 119.29 319.13C122.85 318.27 125.16 318.16 126.78 318.16C127.34 318.16 127.85 318.17 128.34 318.19C128.79 318.2 129.22 318.21 129.65 318.21C129.65 318.21 129.65 318.21 129.65 318.21C132.49 318.21 135.33 317.78 143.67 312.33C158.13 302.89 172.12 287.16 179.57 275.77C186.42 265.3 189.32 257.98 189.75 256.85C188.47 256.33 179.38 252.61 176.28 251.11C173.05 249.55 160.38 240 159.08 239.02C157.12 240.16 126.01 258.14 116.89 268.11ZM112.99 320.29C103.74 320.29 98.93 313.89 98.29 300.72C97.61 286.81 103.9 280.62 111.19 273.45C112.97 271.7 114.81 269.89 116.64 267.88C126.05 257.6 158.69 238.87 159.01 238.68C159.02 238.68 159.05 238.66 159.11 238.63C159.16 238.67 159.19 238.69 159.2 238.69C159.34 238.8 173.12 249.21 176.42 250.81C179.73 252.42 189.92 256.56 190.02 256.61C190.03 256.61 190.08 256.63 190.17 256.67C190.14 256.76 190.12 256.81 190.11 256.82C190.09 256.89 187.29 264.57 179.85 275.95C172.38 287.37 158.35 303.14 143.86 312.61C135.44 318.11 132.55 318.54 129.65 318.54C129.65 318.54 129.65 318.54 129.65 318.54C129.22 318.54 128.78 318.53 128.33 318.52C127.84 318.51 127.33 318.49 126.78 318.49C125.18 318.49 122.89 318.6 119.37 319.45C117.05 320.01 114.9 320.29 112.99 320.29" id="dgAKXM9rv"></path><path d="M197.41 257.18C197.41 257.18 184.39 284.03 171.86 297.4C159.32 310.77 141.12 322.67 141.12 322.67C141.12 322.67 136.68 342.68 146.59 345.25C156.5 347.83 167.18 344.55 181.29 333.85C195.4 323.16 206.15 313.77 207.16 298.21C208.18 282.65 209.52 260.33 209.52 260.33C208.71 260.12 204.67 259.07 197.41 257.18" id="bkDa7qhJD"></path><path d="M146.63 345.09C148.75 345.64 150.92 345.92 153.08 345.92C161.28 345.92 170.21 342.04 181.19 333.72C195.19 323.11 205.98 313.75 207 298.2C207.96 283.45 209.23 262.35 209.35 260.45C208.16 260.14 198.68 257.68 197.49 257.38C196.52 259.37 183.96 284.74 171.98 297.52C159.92 310.38 142.41 322.02 141.27 322.78C141 324.04 137.27 342.66 146.63 345.09ZM153.08 346.25C153.08 346.25 153.08 346.25 153.08 346.25C150.89 346.25 148.69 345.97 146.55 345.42C136.6 342.83 140.77 323.46 140.95 322.64C140.95 322.63 140.96 322.61 140.97 322.57C141 322.55 141.02 322.54 141.03 322.53C141.21 322.42 159.35 310.49 171.73 297.29C184.11 284.09 197.13 257.38 197.26 257.11C197.26 257.1 197.28 257.06 197.31 256.99L209.69 260.2C209.69 260.28 209.69 260.33 209.69 260.33C209.67 260.56 208.33 282.83 207.33 298.22C206.3 313.92 195.46 323.32 181.39 333.99C170.35 342.35 161.35 346.25 153.08 346.25" id="a3fz31W4ub"></path><path d="M217.66 260.17C217.66 260.17 210.9 295.44 215.93 308.08C220.97 320.73 230.85 343.06 250.23 340.09C269.61 337.13 273.8 326.79 278.67 316.76C283.54 306.73 284.33 297.87 281.23 286.49C278.14 275.11 262.94 261.34 256.71 257.46C250.48 253.57 237.37 251.68 237.37 251.68C237.37 251.68 232.78 254.82 229.19 257.01C225.59 259.21 217.66 260.17 217.66 260.17" id="cJq4dviz3"></path><path d="M216.09 308.02C222.05 323 230.93 340.19 246.78 340.19C246.78 340.19 246.78 340.19 246.78 340.19C247.9 340.19 249.05 340.11 250.21 339.93C268.68 337.1 273.37 327.37 277.91 317.96C277.97 317.83 278.46 316.82 278.52 316.69C283.41 306.61 284.15 297.87 281.07 286.53C277.93 274.95 262.31 261.14 256.62 257.6C250.71 253.92 238.41 252.01 237.41 251.86C236.88 252.22 232.62 255.11 229.27 257.15C225.89 259.22 218.85 260.19 217.8 260.32C217.38 262.59 211.28 295.94 216.09 308.02ZM246.78 340.53C246.78 340.53 246.78 340.53 246.78 340.53C230.73 340.53 221.78 323.22 215.78 308.15C210.79 295.61 217.43 260.49 217.49 260.14C217.5 260.13 217.5 260.09 217.52 260.02C217.59 260.01 217.63 260 217.64 260C217.72 259.99 225.58 259.02 229.1 256.87C232.65 254.7 237.23 251.58 237.28 251.55C237.28 251.54 237.3 251.53 237.33 251.51C237.37 251.51 237.39 251.52 237.39 251.52C237.53 251.54 250.61 253.46 256.8 257.32C262.51 260.88 278.22 274.78 281.39 286.45C284.5 297.87 283.75 306.67 278.82 316.84C278.76 316.96 278.27 317.98 278.21 318.1C273.63 327.59 268.9 337.4 250.26 340.26C249.08 340.44 247.91 340.53 246.78 340.53" id="av8Tt5SxE"></path><path d="M260.64 188.2C260.64 188.2 303.09 175.03 320.75 158.46C338.41 141.88 348.13 124.78 348.13 124.78C348.13 124.78 372.41 109.84 376.79 124.99C381.17 140.13 379.78 154.23 376.21 167.99C372.64 181.75 355.52 192.42 336.85 197.4C318.17 202.37 297.91 206.94 285.61 203.75C273.31 200.56 262.69 197.8 262.69 197.8C262.55 197.16 261.87 193.96 260.64 188.2" id="bg8HU8Hy1"></path><path d="M262.83 197.67C276.52 201.22 284.13 203.19 285.65 203.59C288.35 204.29 291.59 204.64 295.29 204.64C307.39 204.64 323.07 200.9 336.8 197.24C353.24 192.85 372.18 182.86 376.05 167.95C380.24 151.79 380.43 138.16 376.63 125.04C375.35 120.61 372.21 118.37 367.29 118.37C359.21 118.37 348.94 124.48 348.26 124.9C347.73 125.81 337.94 142.55 320.86 158.58C303.89 174.51 263.59 187.45 260.84 188.32C261.1 189.56 261.77 192.68 262.83 197.67ZM295.29 204.98C291.57 204.98 288.29 204.62 285.57 203.91C284.03 203.51 276.36 201.52 262.55 197.94L260.45 188.09C260.54 188.06 260.58 188.05 260.59 188.04C261.02 187.91 303.2 174.7 320.63 158.34C338.07 141.97 347.89 124.87 347.99 124.69C347.99 124.69 348.04 124.64 348.05 124.64C348.15 124.57 358.87 118.04 367.29 118.04C372.38 118.04 375.63 120.36 376.95 124.94C380.77 138.12 380.58 151.82 376.37 168.03C372.47 183.08 353.42 193.15 336.89 197.56C323.13 201.23 307.43 204.98 295.29 204.98" id="a12UA5X0tc"></path><path d="M262.27 205.25C262.27 205.25 291.79 216.69 325.23 207.23C358.66 197.77 365.67 188.25 365.27 192.68C364.88 197.11 383.07 205.61 369.83 218.8C356.58 231.99 331.03 235.94 311.51 234.65C292 233.37 271.81 221.33 266.81 218.52C261.82 215.71 260.4 215.34 260.4 215.34C260.53 214.67 261.15 211.3 262.27 205.25" id="e30cNxVDj0"></path><path d="M260.59 215.23C261.07 215.39 262.75 216.04 266.9 218.37C267.17 218.53 267.48 218.71 267.84 218.91C274.09 222.46 293.11 233.27 311.52 234.48C313.83 234.64 316.22 234.71 318.61 234.71C340.53 234.71 359.63 228.72 369.71 218.68C378.94 209.5 372.83 202.73 368.37 197.79C366.48 195.7 364.98 194.05 365.11 192.67C365.15 192.23 365.11 191.95 364.99 191.83C364.95 191.79 364.88 191.73 364.71 191.73C364.07 191.73 362.74 192.43 360.53 193.58C355.39 196.28 344.69 201.89 325.27 207.39C316.47 209.88 307.14 211.14 297.53 211.14C278.48 211.14 264.18 206.13 262.39 205.47C262.03 207.42 260.95 213.28 260.59 215.23ZM318.61 235.05C316.21 235.05 313.82 234.97 311.5 234.82C293.01 233.6 273.94 222.76 267.68 219.2C267.32 219 267 218.82 266.73 218.66C261.83 215.91 260.37 215.51 260.36 215.5C260.35 215.5 260.3 215.49 260.21 215.47L260.24 215.31L262.14 205.02C262.25 205.06 262.31 205.09 262.33 205.09C262.47 205.15 277.31 210.81 297.53 210.81C307.11 210.81 316.41 209.55 325.18 207.07C344.57 201.58 355.25 195.98 360.38 193.29C363.44 191.68 364.72 191.03 365.24 191.6C365.43 191.81 365.49 192.14 365.44 192.7C365.33 193.93 366.85 195.62 368.61 197.57C372.91 202.32 379.4 209.51 369.95 218.92C359.8 229.02 340.61 235.05 318.61 235.05" id="hNkIuolaF"></path><path d="M257.79 219.57C257.79 219.57 275.97 231.06 298.58 237.13C321.18 243.21 331.85 239.93 339.67 238.93C347.48 237.94 351 241.87 351 241.87C351 241.87 377.03 266.77 374.64 275.97C372.25 285.17 376.76 296.92 369.79 303.42C362.81 309.93 353.58 310.55 340.31 306.35C327.04 302.16 291.74 287.71 291.74 287.71C291.74 287.71 276.83 262.68 267.66 257.27C258.48 251.87 242.19 246.13 242.19 246.13C242.19 246.13 248.83 239.54 252.77 236.03C256.7 232.52 257.79 219.57 257.79 219.57" id="b7ZosoAVpb"></path><path d="M340.36 306.19C346 307.98 350.76 308.85 354.91 308.85C360.84 308.85 365.67 307.03 369.67 303.3C373.97 299.29 373.85 293.33 373.73 287.01C373.66 283.27 373.58 279.41 374.48 275.93C376.82 266.92 351.14 242.24 350.88 241.99C350.85 241.95 348.07 238.94 342.14 238.94C341.35 238.94 340.52 238.99 339.69 239.1C338.6 239.24 337.45 239.42 336.23 239.62C332.72 240.18 328.35 240.88 322.74 240.88C315.43 240.88 307.51 239.7 298.53 237.29C277.52 231.65 260.12 221.2 257.93 219.86C257.75 221.79 256.55 232.88 252.88 236.16C249.36 239.3 243.61 244.97 242.49 246.07C244.59 246.81 259.27 252.15 267.74 257.13C276.66 262.38 291.11 286.33 291.86 287.57C293.4 288.2 327.48 302.12 340.36 306.19ZM354.91 309.18C350.72 309.18 345.93 308.31 340.26 306.51C327.14 302.36 292.03 288.01 291.68 287.86C291.68 287.86 291.66 287.85 291.63 287.84C291.61 287.81 291.6 287.8 291.6 287.79C291.45 287.54 276.61 262.74 267.57 257.42C258.51 252.08 242.3 246.35 242.13 246.29C242.12 246.28 242.03 246.25 241.88 246.2C242 246.09 242.06 246.03 242.07 246.01C242.14 245.95 248.76 239.38 252.66 235.91C256.5 232.48 257.62 219.69 257.63 219.56C257.63 219.54 257.64 219.45 257.65 219.28C257.79 219.37 257.87 219.42 257.88 219.43C258.06 219.55 276.3 230.97 298.62 236.97C307.57 239.37 315.46 240.54 322.74 240.54C328.32 240.54 332.68 239.85 336.18 239.29C337.4 239.09 338.55 238.91 339.65 238.77C340.49 238.66 341.33 238.61 342.14 238.61C348.23 238.61 351.01 241.63 351.12 241.76C352.18 242.77 377.19 266.82 374.8 276.01C373.91 279.45 373.99 283.29 374.06 287C374.19 293.39 374.31 299.43 369.9 303.55C365.83 307.34 360.93 309.18 354.91 309.18" id="a8vPKKPal"></path><path d="M254.66 202.52C254.66 202.52 253.13 193.69 251.8 182.89C250.47 172.08 238 159.17 216.84 153.17C195.68 147.16 176.27 163.28 169.37 169.81C162.47 176.33 156.6 187.27 154.92 202.52C153.23 217.76 154.5 224.68 165.86 236.05C177.23 247.41 208.38 257.55 219.15 254.41C229.92 251.26 240.05 238.78 247.86 228.9C255.67 219.02 254.66 202.52 254.66 202.52" id="b8pVNqTzr"></path><path d="M169.48 169.93C161.71 177.27 156.6 188.85 155.08 202.53C153.4 217.73 154.74 224.68 165.98 235.93C175.98 245.93 201.28 254.82 214.21 254.82C214.21 254.82 214.21 254.82 214.21 254.82C216.16 254.82 217.8 254.63 219.11 254.25C230.18 251.01 240.74 237.65 247.73 228.8C255.41 219.08 254.51 202.69 254.49 202.53C254.48 202.46 252.95 193.59 251.63 182.91C250.43 173.08 239.01 159.63 216.79 153.33C213.73 152.46 210.55 152.02 207.33 152.02C190.88 152.02 176.56 163.24 169.48 169.93ZM214.21 255.16C214.21 255.16 214.21 255.16 214.21 255.16C201.22 255.15 175.79 246.21 165.74 236.16C154.41 224.82 153.05 217.81 154.75 202.5C156.27 188.74 161.42 177.09 169.25 169.69C176.36 162.96 190.77 151.68 207.33 151.68C210.58 151.68 213.79 152.13 216.88 153.01C226.84 155.83 235.48 160.36 241.87 166.1C247.69 171.34 251.28 177.29 251.97 182.86C253.28 193.54 254.81 202.4 254.83 202.49C254.84 202.67 255.75 219.19 247.99 229.01C240.98 237.89 230.38 251.3 219.2 254.57C217.87 254.96 216.19 255.16 214.21 255.16" id="c20jStQl83"></path></defs><g><g><g><use xlink:href="#a1dSA8x8Ni" opacity="1" fill="#000000" fill-opacity="1"></use><g><use xlink:href="#a1dSA8x8Ni" opacity="1" fill-opacity="0" stroke="#000000" stroke-width="1" stroke-opacity="0"></use></g></g><g><use xlink:href="#bD684n7LM" opacity="1" fill="#000000" fill-opacity="1"></use><g><use xlink:href="#bD684n7LM" opacity="1" fill-opacity="0" stroke="#000000" stroke-width="1" stroke-opacity="0"></use></g></g><g><use xlink:href="#aJ3frKvWL" opacity="1" fill="#000000" fill-opacity="1"></use><g><use xlink:href="#aJ3frKvWL" opacity="1" fill-opacity="0" stroke="#000000" stroke-width="1" stroke-opacity="0"></use></g></g><g><use xlink:href="#bQFgaoMvU" opacity="1" fill="#000000" fill-opacity="1"></use><g><use xlink:href="#bQFgaoMvU" opacity="1" fill-opacity="0" stroke="#000000" stroke-width="1" stroke-opacity="0"></use></g></g><g><use xlink:href="#c8rejv4k7k" opacity="1" fill="#000000" fill-opacity="1"></use><g><use xlink:href="#c8rejv4k7k" opacity="1" fill-opacity="0" stroke="#000000" stroke-width="1" stroke-opacity="0"></use></g></g><g><use xlink:href="#bGbnXZPN4" opacity="1" fill="#000000" fill-opacity="1"></use><g><use xlink:href="#bGbnXZPN4" opacity="1" fill-opacity="0" stroke="#000000" stroke-width="1" stroke-opacity="0"></use></g></g><g><use xlink:href="#bq2kG9t7V" opacity="1" fill="#000000" fill-opacity="1"></use><g><use xlink:href="#bq2kG9t7V" opacity="1" fill-opacity="0" stroke="#000000" stroke-width="1" stroke-opacity="0"></use></g></g><g><use xlink:href="#cHZIWpxDL" opacity="1" fill="#000000" fill-opacity="1"></use><g><use xlink:href="#cHZIWpxDL" opacity="1" fill-opacity="0" stroke="#000000" stroke-width="1" stroke-opacity="0"></use></g></g><g><use xlink:href="#fACB9EQPj" opacity="1" fill="#000000" fill-opacity="1"></use><g><use xlink:href="#fACB9EQPj" opacity="1" fill-opacity="0" stroke="#000000" stroke-width="1" stroke-opacity="0"></use></g></g><g><use xlink:href="#cmS3JGW0X" opacity="1" fill="#000000" fill-opacity="1"></use><g><use xlink:href="#cmS3JGW0X" opacity="1" fill-opacity="0" stroke="#000000" stroke-width="1" stroke-opacity="0"></use></g></g><g><use xlink:href="#b3CCSATMzg" opacity="1" fill="#000000" fill-opacity="1"></use><g><use xlink:href="#b3CCSATMzg" opacity="1" fill-opacity="0" stroke="#000000" stroke-width="1" stroke-opacity="0"></use></g></g><g><use xlink:href="#a2FB5gs2Ka" opacity="1" fill="#000000" fill-opacity="1"></use><g><use xlink:href="#a2FB5gs2Ka" opacity="1" fill-opacity="0" stroke="#000000" stroke-width="1" stroke-opacity="0"></use></g></g><g><use xlink:href="#d2Wh3XO3yY" opacity="1" fill="#000000" fill-opacity="1"></use><g><use xlink:href="#d2Wh3XO3yY" opacity="1" fill-opacity="0" stroke="#000000" stroke-width="1" stroke-opacity="0"></use></g></g><g><use xlink:href="#c7n3eoP2N" opacity="1" fill="#000000" fill-opacity="1"></use><g><use xlink:href="#c7n3eoP2N" opacity="1" fill-opacity="0" stroke="#000000" stroke-width="1" stroke-opacity="0"></use></g></g><g><use xlink:href="#jhFHM7UKa" opacity="1" fill="#000000" fill-opacity="1"></use><g><use xlink:href="#jhFHM7UKa" opacity="1" fill-opacity="0" stroke="#000000" stroke-width="1" stroke-opacity="0"></use></g></g><g><use xlink:href="#c2Tc13iDHx" opacity="1" fill="#000000" fill-opacity="1"></use><g><use xlink:href="#c2Tc13iDHx" opacity="1" fill-opacity="0" stroke="#000000" stroke-width="1" stroke-opacity="0"></use></g></g><g><use xlink:href="#h2sQhyYQdA" opacity="1" fill="#000000" fill-opacity="1"></use><g><use xlink:href="#h2sQhyYQdA" opacity="1" fill-opacity="0" stroke="#000000" stroke-width="1" stroke-opacity="0"></use></g></g><g><use xlink:href="#dgAKXM9rv" opacity="1" fill="#000000" fill-opacity="1"></use><g><use xlink:href="#dgAKXM9rv" opacity="1" fill-opacity="0" stroke="#000000" stroke-width="1" stroke-opacity="0"></use></g></g><g><use xlink:href="#bkDa7qhJD" opacity="1" fill="#000000" fill-opacity="1"></use><g><use xlink:href="#bkDa7qhJD" opacity="1" fill-opacity="0" stroke="#000000" stroke-width="1" stroke-opacity="0"></use></g></g><g><use xlink:href="#a3fz31W4ub" opacity="1" fill="#000000" fill-opacity="1"></use><g><use xlink:href="#a3fz31W4ub" opacity="1" fill-opacity="0" stroke="#000000" stroke-width="1" stroke-opacity="0"></use></g></g><g><use xlink:href="#cJq4dviz3" opacity="1" fill="#000000" fill-opacity="1"></use><g><use xlink:href="#cJq4dviz3" opacity="1" fill-opacity="0" stroke="#000000" stroke-width="1" stroke-opacity="0"></use></g></g><g><use xlink:href="#av8Tt5SxE" opacity="1" fill="#000000" fill-opacity="1"></use><g><use xlink:href="#av8Tt5SxE" opacity="1" fill-opacity="0" stroke="#000000" stroke-width="1" stroke-opacity="0"></use></g></g><g><use xlink:href="#bg8HU8Hy1" opacity="1" fill="#000000" fill-opacity="1"></use><g><use xlink:href="#bg8HU8Hy1" opacity="1" fill-opacity="0" stroke="#000000" stroke-width="1" stroke-opacity="0"></use></g></g><g><use xlink:href="#a12UA5X0tc" opacity="1" fill="#000000" fill-opacity="1"></use><g><use xlink:href="#a12UA5X0tc" opacity="1" fill-opacity="0" stroke="#000000" stroke-width="1" stroke-opacity="0"></use></g></g><g><use xlink:href="#e30cNxVDj0" opacity="1" fill="#000000" fill-opacity="1"></use><g><use xlink:href="#e30cNxVDj0" opacity="1" fill-opacity="0" stroke="#000000" stroke-width="1" stroke-opacity="0"></use></g></g><g><use xlink:href="#hNkIuolaF" opacity="1" fill="#000000" fill-opacity="1"></use><g><use xlink:href="#hNkIuolaF" opacity="1" fill-opacity="0" stroke="#000000" stroke-width="1" stroke-opacity="0"></use></g></g><g><use xlink:href="#b7ZosoAVpb" opacity="1" fill="#000000" fill-opacity="1"></use><g><use xlink:href="#b7ZosoAVpb" opacity="1" fill-opacity="0" stroke="#000000" stroke-width="1" stroke-opacity="0"></use></g></g><g><use xlink:href="#a8vPKKPal" opacity="1" fill="#000000" fill-opacity="1"></use><g><use xlink:href="#a8vPKKPal" opacity="1" fill-opacity="0" stroke="#000000" stroke-width="1" stroke-opacity="0"></use></g></g><g><use xlink:href="#b8pVNqTzr" opacity="1" fill="#000000" fill-opacity="1"></use><g><use xlink:href="#b8pVNqTzr" opacity="1" fill-opacity="0" stroke="#000000" stroke-width="1" stroke-opacity="0"></use></g></g><g><use xlink:href="#c20jStQl83" opacity="1" fill="#000000" fill-opacity="1"></use><g><use xlink:href="#c20jStQl83" opacity="1" fill-opacity="0" stroke="#000000" stroke-width="1" stroke-opacity="0"></use></g></g></g></g></svg>