<?xml version="1.0" encoding="UTF-8" standalone="no"?>
<!DOCTYPE svg PUBLIC "-//W3C//DTD SVG 1.1//EN" "http://www.w3.org/Graphics/SVG/1.1/DTD/svg11.dtd">
<svg version="1.1" xmlns="http://www.w3.org/2000/svg" xmlns:xlink="http://www.w3.org/1999/xlink" preserveAspectRatio="xMidYMid meet" viewBox="0 0 640 640" width="640" height="640"><defs><path d="M765.83 836.73L-354.93 836.73L-354.93 -298.08L765.83 -298.08L765.83 836.73" id="aiU5oV14r"></path><path d="M317.04 417.55C373.41 417.55 419.11 371.28 419.11 314.2C419.11 257.12 373.41 210.85 317.04 210.85C260.67 210.85 214.97 257.12 214.97 314.2C214.97 371.28 260.67 417.55 317.04 417.55" id="b21utTSO2y"></path><path d="M304.71 201.21C308.76 200.76 312.88 200.52 317.04 200.52C321.21 200.52 325.32 200.76 329.37 201.21C337.23 188 342.56 162.57 342.56 133.34C342.56 90.54 317.04 55.83 317.04 55.83C317.04 55.83 291.53 90.54 291.53 133.34C291.53 162.57 296.85 188 304.71 201.21" id="a1ayGYEanx"></path><path d="M342.15 182.21C342.41 182.29 342.67 182.38 342.93 182.43C343.19 182.49 343.46 182.5 343.73 182.53C345.67 168.43 350.25 152.01 357.11 135.25C364.16 118 374.84 104.02 384.92 93.55C386.21 58.99 372.8 30.39 372.8 30.39C372.8 30.39 349.6 51.62 337.73 84.04C343.08 97.62 347.66 114.67 347.66 133.34C347.66 151.49 345.69 168.44 342.15 182.21" id="b28RmBllBW"></path><path d="M348.36 205.02C356.35 207.38 363.97 210.61 371.12 214.6C383.38 205.45 397.92 184.01 408.97 157C425.15 117.45 414.69 75.5 414.69 75.5C414.69 75.5 378 97.67 361.82 137.22C350.78 164.22 346.09 189.77 348.36 205.02" id="col72p0K4"></path><path d="M262.97 214.6C270.12 210.61 277.74 207.38 285.73 205.02C288 189.77 283.31 164.22 272.26 137.22C256.08 97.67 219.39 75.5 219.39 75.5C219.39 75.5 208.93 117.45 225.11 157C236.16 184.01 250.71 205.45 262.97 214.6" id="cilIDzHKR"></path><path d="M229.47 243.15C234.62 236.65 240.45 230.75 246.87 225.53C243.22 210.56 229.22 188.74 208.78 168.05C178.89 137.78 136.61 131.51 136.61 131.51C136.61 131.51 142.8 174.32 172.7 204.59C193.13 225.27 214.69 239.46 229.47 243.15" id="hAwq9XJr4"></path><path d="M218.68 259.45C209.64 247.04 188.46 232.31 161.78 221.12C122.72 204.74 81.29 215.33 81.29 215.33C81.29 215.33 103.19 252.48 142.25 268.86C168.91 280.04 194.15 284.79 209.22 282.5C211.54 274.41 214.73 266.69 218.68 259.45" id="apPtrYb6G"></path><path d="M61.87 314.2C61.87 314.2 96.14 340.04 138.42 340.04C167.28 340.04 192.4 334.65 205.45 326.69C205 322.59 204.77 318.42 204.77 314.2C204.77 309.98 205 305.82 205.45 301.72C192.4 293.76 167.28 288.37 138.42 288.37C96.14 288.37 61.87 314.2 61.87 314.2" id="b16VVMw6lr"></path><path d="M81.29 413.08C81.29 413.08 122.72 423.67 161.78 407.28C188.46 396.1 209.64 381.37 218.68 368.96C214.73 361.72 211.54 354 209.22 345.91C194.15 343.61 168.91 348.36 142.25 359.54C103.19 375.93 81.29 413.08 81.29 413.08" id="i2GpMDPIJ"></path><path d="M246.87 402.87C240.45 397.66 234.62 391.75 229.47 385.26C214.69 388.95 193.13 403.13 172.7 423.82C142.8 454.09 136.61 496.9 136.61 496.9C136.61 496.9 178.89 490.63 208.78 460.36C229.22 439.67 243.22 417.84 246.87 402.87" id="a3lSLw2Ag"></path><path d="M285.73 423.38C277.74 421.03 270.12 417.8 262.97 413.8C250.71 422.95 236.16 444.4 225.11 471.41C208.93 510.96 219.39 552.91 219.39 552.91C219.39 552.91 256.08 530.73 272.26 491.18C283.31 464.19 288 438.63 285.73 423.38" id="c2DURuDcus"></path><path d="M329.37 427.2C325.32 427.65 321.21 427.89 317.04 427.89C312.88 427.89 308.76 427.65 304.71 427.2C296.85 440.41 291.53 465.84 291.53 495.06C291.53 537.87 317.04 572.57 317.04 572.57C317.04 572.57 342.56 537.87 342.56 495.06C342.56 465.84 337.23 440.41 329.37 427.2" id="f49Via0qfg"></path><path d="M371.12 413.8C363.97 417.8 356.35 421.03 348.36 423.38C346.09 438.63 350.78 464.19 361.82 491.18C378 530.73 414.69 552.91 414.69 552.91C414.69 552.91 425.15 510.96 408.97 471.41C397.92 444.4 383.38 422.95 371.12 413.8" id="a1TC5PAjLc"></path><path d="M404.61 385.26C399.47 391.75 393.63 397.66 387.22 402.87C390.86 417.84 404.87 439.67 425.3 460.36C455.2 490.63 497.48 496.9 497.48 496.9C497.48 496.9 491.28 454.09 461.39 423.82C440.96 403.13 419.4 388.95 404.61 385.26" id="a2z1MhN0oP"></path><path d="M472.3 407.28C511.36 423.67 552.79 413.08 552.79 413.08C552.79 413.08 530.89 375.93 491.83 359.54C465.17 348.36 439.93 343.61 424.87 345.91C422.55 354 419.36 361.72 415.41 368.96C424.44 381.37 445.62 396.1 472.3 407.28" id="b2mIWPSW68"></path><path d="M572.22 314.2C572.22 314.2 537.94 288.37 495.66 288.37C466.8 288.37 441.68 293.76 428.64 301.72C429.08 305.82 429.32 309.98 429.32 314.2C429.32 318.42 429.08 322.59 428.64 326.69C441.68 334.65 466.8 340.04 495.66 340.04C537.94 340.04 572.22 314.2 572.22 314.2" id="b4ukdTsPVH"></path><path d="M491.83 268.86C530.89 252.48 552.79 215.33 552.79 215.33C552.79 215.33 511.36 204.74 472.3 221.12C445.62 232.31 424.44 247.04 415.41 259.45C419.36 266.69 422.55 274.41 424.87 282.5C439.93 284.79 465.17 280.04 491.83 268.86" id="b4Cq6st34P"></path><path d="M276.98 135.25C283.84 152.01 288.42 168.43 290.35 182.53C290.62 182.5 290.89 182.49 291.16 182.43C291.42 182.38 291.67 182.29 291.93 182.21C288.39 168.44 286.42 151.49 286.42 133.34C286.42 114.67 291 97.62 296.36 84.04C284.49 51.62 261.29 30.39 261.29 30.39C261.29 30.39 247.88 58.99 249.16 93.55C259.24 104.02 269.92 118 276.98 135.25" id="b38xTFVxF6"></path><path d="M387.22 225.53C393.63 230.75 399.47 236.65 404.62 243.15C419.4 239.46 440.96 225.27 461.39 204.59C491.28 174.32 497.48 131.51 497.48 131.51C497.48 131.51 455.2 137.78 425.3 168.05C404.87 188.74 390.86 210.56 387.22 225.53" id="d16TTLdeKZ"></path><path d="M170.91 136.63C184.19 142.4 199.35 151.19 212.39 164.39C224.88 177.04 235.39 190.57 242.57 202.92C242.57 202.92 242.57 202.92 242.57 202.92C242.83 202.79 243.08 202.65 243.32 202.49C243.56 202.33 243.78 202.14 244.01 201.95C235.48 190.51 227.16 175.5 220.4 158.98C213.34 141.72 211.12 124.17 210.94 109.55C187.72 84.21 158.26 73.6 158.26 73.6C158.26 73.6 156.68 105.21 170.91 136.63C170.91 136.63 170.91 136.63 170.91 136.63" id="c5zwpa3oo"></path><path d="M114.96 206.81C132.77 207.03 149.17 210.23 163.74 216.34C180.05 223.18 194.88 231.62 206.18 240.25C206.37 240.02 206.56 239.8 206.72 239.56C206.88 239.32 207 239.06 207.14 238.8C194.94 231.53 181.58 220.89 169.09 208.24C156.04 195.03 147.36 179.68 141.67 166.24C110.64 151.83 79.41 153.43 79.41 153.43C79.41 153.43 89.91 183.29 114.96 206.81" id="foGqWC6QU"></path><path d="M89.73 293.26C103.14 287.84 119.98 283.2 138.42 283.2C156.35 283.2 173.08 285.19 186.69 288.78C186.76 288.52 186.85 288.26 186.9 287.99C186.98 287.61 187.02 287.22 187.04 286.83C172.97 284.89 156.64 280.31 140.3 273.46C123.35 266.35 109.59 255.62 99.27 245.48C65.08 244.13 36.74 257.75 36.74 257.75C36.74 257.75 57.71 281.24 89.73 293.26" id="a31ncKvkZN"></path><path d="M99.08 382.93C109.42 372.72 123.24 361.9 140.3 354.74C156.62 347.9 172.94 343.22 187 341.24C186.97 340.96 186.96 340.69 186.9 340.41C186.85 340.15 186.76 339.89 186.69 339.63C173.08 343.21 156.34 345.21 138.42 345.21C119.98 345.21 103.14 340.57 89.73 335.15C57.71 347.17 36.74 370.66 36.74 370.66C36.74 370.66 64.97 384.22 99.08 382.93" id="bK82klt5e"></path><path d="M169.09 420.17C181.58 407.52 194.94 396.88 207.14 389.61C207 389.35 206.88 389.09 206.72 388.85C206.54 388.59 206.34 388.35 206.15 388.11C194.85 396.67 180.04 405.01 163.74 411.85C149.3 417.91 133.05 420.91 115.43 421.17C90.03 444.75 79.41 474.97 79.41 474.97C79.41 474.97 110.64 476.58 141.67 462.16C147.36 448.72 156.04 433.37 169.09 420.17" id="b5ArGXAQH"></path><path d="M244.01 426.45C243.78 426.27 243.56 426.08 243.32 425.91C243.08 425.75 242.83 425.62 242.57 425.48C235.39 437.83 224.88 451.37 212.39 464.01C199.35 477.22 184.19 486.01 170.91 491.78C156.68 523.2 158.26 554.81 158.26 554.81C158.26 554.81 187.72 544.2 210.94 518.85C211.12 504.23 213.34 486.69 220.4 469.43C227.16 452.91 235.48 437.9 244.01 426.45" id="akfdWuyqH"></path><path d="M291.93 446.19C291.67 446.12 291.42 446.03 291.16 445.97C290.89 445.92 290.62 445.9 290.35 445.87C288.42 459.97 283.84 476.39 276.98 493.16C269.92 510.41 259.24 524.39 249.16 534.86C247.88 569.41 261.29 598.02 261.29 598.02C261.29 598.02 284.49 576.79 296.36 544.37C291 530.79 286.42 513.73 286.42 495.06C286.42 476.91 288.39 459.97 291.93 446.19" id="b6N83Mv4KW"></path><path d="M357.11 493.16C350.25 476.39 345.67 459.97 343.73 445.87C343.46 445.9 343.19 445.92 342.93 445.97C342.67 446.03 342.41 446.12 342.15 446.19C345.69 459.97 347.66 476.91 347.66 495.06C347.66 513.73 343.08 530.79 337.73 544.37C349.6 576.79 372.8 598.02 372.8 598.02C372.8 598.02 386.21 569.41 384.92 534.86C374.84 524.39 364.16 510.41 357.11 493.16" id="a2bxZuqhNG"></path><path d="M421.69 464.01C409.21 451.37 398.69 437.83 391.51 425.48C391.26 425.62 391 425.75 390.76 425.91C390.52 426.08 390.3 426.27 390.08 426.45C398.6 437.9 406.93 452.91 413.69 469.43C420.75 486.69 422.97 504.23 423.15 518.85C446.37 544.2 475.82 554.81 475.82 554.81C475.82 554.81 477.41 523.2 463.17 491.78C449.9 486.01 434.74 477.22 421.69 464.01" id="c1dfA3D95u"></path><path d="M518.66 421.17C501.03 420.91 484.79 417.9 470.35 411.85C454.07 405.02 439.27 396.65 427.97 388.07C427.76 388.32 427.55 388.57 427.37 388.85C427.21 389.09 427.08 389.35 426.95 389.61C439.14 396.88 452.51 407.52 465 420.17C478.04 433.37 486.72 448.72 492.42 462.16C523.45 476.58 554.67 474.97 554.67 474.97C554.67 474.97 544.05 444.75 518.66 421.17" id="e16ZB2JSt"></path><path d="M544.36 335.15C530.95 340.57 514.1 345.21 495.66 345.21C477.74 345.21 461 343.21 447.4 339.63C447.32 339.89 447.24 340.15 447.18 340.41C447.13 340.69 447.11 340.97 447.08 341.25C461.14 343.24 477.46 347.92 493.79 354.77C510.82 361.91 524.63 372.73 534.97 382.93C569.09 384.23 597.34 370.66 597.34 370.66C597.34 370.66 576.38 347.17 544.36 335.15" id="a5djaf6tLV"></path><path d="M597.34 257.75C597.34 257.75 569.09 244.17 534.97 245.47C524.63 255.68 510.82 266.49 493.79 273.64C477.46 280.48 461.14 285.16 447.08 287.15C447.11 287.43 447.13 287.71 447.18 287.99C447.24 288.26 447.32 288.52 447.4 288.78C461 285.19 477.74 283.2 495.66 283.2C514.1 283.2 530.95 287.84 544.36 293.26C576.38 281.24 597.34 257.75 597.34 257.75" id="a4kXE67u7p"></path><path d="M390.08 201.95C390.3 202.14 390.52 202.33 390.76 202.49C391 202.65 391.26 202.79 391.51 202.92C398.69 190.57 409.21 177.04 421.69 164.39C434.74 151.19 449.9 142.4 463.17 136.63C477.41 105.21 475.82 73.6 475.82 73.6C475.82 73.6 446.37 84.21 423.15 109.55C422.97 124.17 420.75 141.72 413.69 158.98C406.93 175.5 398.6 190.51 390.08 201.95" id="c1uHvOZrH5"></path><path d="M465 208.24C452.51 220.89 439.14 231.53 426.95 238.8C427.08 239.06 427.21 239.32 427.37 239.56C427.53 239.8 427.72 240.02 427.9 240.25C439.21 231.62 454.03 223.19 470.35 216.35C484.91 210.24 501.31 207.04 519.11 206.82C544.18 183.3 554.67 153.43 554.67 153.43C554.67 153.43 523.45 151.83 492.42 166.24C486.72 179.68 478.04 195.03 465 208.24" id="b348bAJe2J"></path></defs><g><g><g><use xlink:href="#aiU5oV14r" opacity="1" fill="#fcfcfd" fill-opacity="0"></use><g><use xlink:href="#aiU5oV14r" opacity="1" fill-opacity="0" stroke="#000000" stroke-width="1" stroke-opacity="0"></use></g></g><g><use xlink:href="#b21utTSO2y" opacity="1" fill="#515254" fill-opacity="1"></use><g><use xlink:href="#b21utTSO2y" opacity="1" fill-opacity="0" stroke="#000000" stroke-width="1" stroke-opacity="0"></use></g></g><g><use xlink:href="#a1ayGYEanx" opacity="1" fill="#515254" fill-opacity="1"></use><g><use xlink:href="#a1ayGYEanx" opacity="1" fill-opacity="0" stroke="#000000" stroke-width="1" stroke-opacity="0"></use></g></g><g><use xlink:href="#b28RmBllBW" opacity="1" fill="#515254" fill-opacity="1"></use><g><use xlink:href="#b28RmBllBW" opacity="1" fill-opacity="0" stroke="#000000" stroke-width="1" stroke-opacity="0"></use></g></g><g><use xlink:href="#col72p0K4" opacity="1" fill="#515254" fill-opacity="1"></use><g><use xlink:href="#col72p0K4" opacity="1" fill-opacity="0" stroke="#000000" stroke-width="1" stroke-opacity="0"></use></g></g><g><use xlink:href="#cilIDzHKR" opacity="1" fill="#515254" fill-opacity="1"></use><g><use xlink:href="#cilIDzHKR" opacity="1" fill-opacity="0" stroke="#000000" stroke-width="1" stroke-opacity="0"></use></g></g><g><use xlink:href="#hAwq9XJr4" opacity="1" fill="#515254" fill-opacity="1"></use><g><use xlink:href="#hAwq9XJr4" opacity="1" fill-opacity="0" stroke="#000000" stroke-width="1" stroke-opacity="0"></use></g></g><g><use xlink:href="#apPtrYb6G" opacity="1" fill="#515254" fill-opacity="1"></use><g><use xlink:href="#apPtrYb6G" opacity="1" fill-opacity="0" stroke="#000000" stroke-width="1" stroke-opacity="0"></use></g></g><g><use xlink:href="#b16VVMw6lr" opacity="1" fill="#515254" fill-opacity="1"></use><g><use xlink:href="#b16VVMw6lr" opacity="1" fill-opacity="0" stroke="#000000" stroke-width="1" stroke-opacity="0"></use></g></g><g><use xlink:href="#i2GpMDPIJ" opacity="1" fill="#515254" fill-opacity="1"></use><g><use xlink:href="#i2GpMDPIJ" opacity="1" fill-opacity="0" stroke="#000000" stroke-width="1" stroke-opacity="0"></use></g></g><g><use xlink:href="#a3lSLw2Ag" opacity="1" fill="#515254" fill-opacity="1"></use><g><use xlink:href="#a3lSLw2Ag" opacity="1" fill-opacity="0" stroke="#000000" stroke-width="1" stroke-opacity="0"></use></g></g><g><use xlink:href="#c2DURuDcus" opacity="1" fill="#515254" fill-opacity="1"></use><g><use xlink:href="#c2DURuDcus" opacity="1" fill-opacity="0" stroke="#000000" stroke-width="1" stroke-opacity="0"></use></g></g><g><use xlink:href="#f49Via0qfg" opacity="1" fill="#515254" fill-opacity="1"></use><g><use xlink:href="#f49Via0qfg" opacity="1" fill-opacity="0" stroke="#000000" stroke-width="1" stroke-opacity="0"></use></g></g><g><use xlink:href="#a1TC5PAjLc" opacity="1" fill="#515254" fill-opacity="1"></use><g><use xlink:href="#a1TC5PAjLc" opacity="1" fill-opacity="0" stroke="#000000" stroke-width="1" stroke-opacity="0"></use></g></g><g><use xlink:href="#a2z1MhN0oP" opacity="1" fill="#515254" fill-opacity="1"></use><g><use xlink:href="#a2z1MhN0oP" opacity="1" fill-opacity="0" stroke="#000000" stroke-width="1" stroke-opacity="0"></use></g></g><g><use xlink:href="#b2mIWPSW68" opacity="1" fill="#515254" fill-opacity="1"></use><g><use xlink:href="#b2mIWPSW68" opacity="1" fill-opacity="0" stroke="#000000" stroke-width="1" stroke-opacity="0"></use></g></g><g><use xlink:href="#b4ukdTsPVH" opacity="1" fill="#515254" fill-opacity="1"></use><g><use xlink:href="#b4ukdTsPVH" opacity="1" fill-opacity="0" stroke="#000000" stroke-width="1" stroke-opacity="0"></use></g></g><g><use xlink:href="#b4Cq6st34P" opacity="1" fill="#515254" fill-opacity="1"></use><g><use xlink:href="#b4Cq6st34P" opacity="1" fill-opacity="0" stroke="#000000" stroke-width="1" stroke-opacity="0"></use></g></g><g><use xlink:href="#b38xTFVxF6" opacity="1" fill="#515254" fill-opacity="1"></use><g><use xlink:href="#b38xTFVxF6" opacity="1" fill-opacity="0" stroke="#000000" stroke-width="1" stroke-opacity="0"></use></g></g><g><use xlink:href="#d16TTLdeKZ" opacity="1" fill="#515254" fill-opacity="1"></use><g><use xlink:href="#d16TTLdeKZ" opacity="1" fill-opacity="0" stroke="#000000" stroke-width="1" stroke-opacity="0"></use></g></g><g><use xlink:href="#c5zwpa3oo" opacity="1" fill="#515254" fill-opacity="1"></use><g><use xlink:href="#c5zwpa3oo" opacity="1" fill-opacity="0" stroke="#000000" stroke-width="1" stroke-opacity="0"></use></g></g><g><use xlink:href="#foGqWC6QU" opacity="1" fill="#515254" fill-opacity="1"></use><g><use xlink:href="#foGqWC6QU" opacity="1" fill-opacity="0" stroke="#000000" stroke-width="1" stroke-opacity="0"></use></g></g><g><use xlink:href="#a31ncKvkZN" opacity="1" fill="#515254" fill-opacity="1"></use><g><use xlink:href="#a31ncKvkZN" opacity="1" fill-opacity="0" stroke="#000000" stroke-width="1" stroke-opacity="0"></use></g></g><g><use xlink:href="#bK82klt5e" opacity="1" fill="#515254" fill-opacity="1"></use><g><use xlink:href="#bK82klt5e" opacity="1" fill-opacity="0" stroke="#000000" stroke-width="1" stroke-opacity="0"></use></g></g><g><use xlink:href="#b5ArGXAQH" opacity="1" fill="#515254" fill-opacity="1"></use><g><use xlink:href="#b5ArGXAQH" opacity="1" fill-opacity="0" stroke="#000000" stroke-width="1" stroke-opacity="0"></use></g></g><g><use xlink:href="#akfdWuyqH" opacity="1" fill="#515254" fill-opacity="1"></use><g><use xlink:href="#akfdWuyqH" opacity="1" fill-opacity="0" stroke="#000000" stroke-width="1" stroke-opacity="0"></use></g></g><g><use xlink:href="#b6N83Mv4KW" opacity="1" fill="#515254" fill-opacity="1"></use><g><use xlink:href="#b6N83Mv4KW" opacity="1" fill-opacity="0" stroke="#000000" stroke-width="1" stroke-opacity="0"></use></g></g><g><use xlink:href="#a2bxZuqhNG" opacity="1" fill="#515254" fill-opacity="1"></use><g><use xlink:href="#a2bxZuqhNG" opacity="1" fill-opacity="0" stroke="#000000" stroke-width="1" stroke-opacity="0"></use></g></g><g><use xlink:href="#c1dfA3D95u" opacity="1" fill="#515254" fill-opacity="1"></use><g><use xlink:href="#c1dfA3D95u" opacity="1" fill-opacity="0" stroke="#000000" stroke-width="1" stroke-opacity="0"></use></g></g><g><use xlink:href="#e16ZB2JSt" opacity="1" fill="#515254" fill-opacity="1"></use><g><use xlink:href="#e16ZB2JSt" opacity="1" fill-opacity="0" stroke="#000000" stroke-width="1" stroke-opacity="0"></use></g></g><g><use xlink:href="#a5djaf6tLV" opacity="1" fill="#515254" fill-opacity="1"></use><g><use xlink:href="#a5djaf6tLV" opacity="1" fill-opacity="0" stroke="#000000" stroke-width="1" stroke-opacity="0"></use></g></g><g><use xlink:href="#a4kXE67u7p" opacity="1" fill="#515254" fill-opacity="1"></use><g><use xlink:href="#a4kXE67u7p" opacity="1" fill-opacity="0" stroke="#000000" stroke-width="1" stroke-opacity="0"></use></g></g><g><use xlink:href="#c1uHvOZrH5" opacity="1" fill="#515254" fill-opacity="1"></use><g><use xlink:href="#c1uHvOZrH5" opacity="1" fill-opacity="0" stroke="#000000" stroke-width="1" stroke-opacity="0"></use></g></g><g><use xlink:href="#b348bAJe2J" opacity="1" fill="#515254" fill-opacity="1"></use><g><use xlink:href="#b348bAJe2J" opacity="1" fill-opacity="0" stroke="#000000" stroke-width="1" stroke-opacity="0"></use></g></g></g></g></svg>