<svg xmlns="http://www.w3.org/2000/svg" xmlns:se="http://svg-edit.googlecode.com" xmlns:xlink="http://www.w3.org/1999/xlink" xmlns:dc="http://purl.org/dc/elements/1.1/" xmlns:cc="http://creativecommons.org/ns#" xmlns:rdf="http://www.w3.org/1999/02/22-rdf-syntax-ns#" xmlns:inkscape="http://www.inkscape.org/namespaces/inkscape" width="35.21739102829599" height="102.17391300404233">
                                    <title>my vector image</title>
                                    <!-- Created with Vector Paint - http://www.vectorpaint.yaks.com/ https://chrome.google.com/webstore/detail/hnbpdiengicdefcjecjbnjnoifekhgdo -->
                                    <rect id="backgroundrect" width="100%" height="100%" x="0" y="0" fill="#FFFFFF" stroke="none" class="" style=""/>
                                <g style="" class="currentLayer"><title>Layer 1</title><polyline fill="none" stroke="#8ced6f" stroke-width="2" stroke-linejoin="round" stroke-dashoffset="" fill-rule="nonzero" marker-start="" marker-mid="" marker-end="" id="svg_18" points="17.608708143234253,0 17.608708143234253,0.54347825050354 17.608708143234253,0.54347825050354 17.608708143234253,0.54347825050354 17.608708143234253,1.08695650100708 17.608708143234253,1.08695650100708 17.608708143234253,1.08695650100708 17.608708143234253,1.08695650100708 17.608708143234253,1.6304347515106201 17.608708143234253,1.6304347515106201 17.608708143234253,1.6304347515106201 18.152186155319214,1.6304347515106201 18.152186155319214,1.6304347515106201 18.152186155319214,1.6304347515106201 18.152186155319214,2.17391300201416 18.152186155319214,2.17391300201416 18.152186155319214,2.7173912525177 18.152186155319214,2.7173912525177 18.152186155319214,3.2608695030212402 18.695664167404175,3.2608695030212402 18.695664167404175,3.2608695030212402 18.695664167404175,3.2608695030212402 18.695664167404175,3.2608695030212402 18.695664167404175,3.8043477535247803 18.695664167404175,4.347825765609741 18.695664167404175,4.347825765609741 18.695664167404175,4.347825765609741 18.695664167404175,4.89130425453186 18.695664167404175,4.89130425453186 19.23914408683777,5.4347827434539795 19.23914408683777,5.97826075553894 19.23914408683777,5.97826075553894 19.23914408683777,5.97826075553894 19.23914408683777,6.52173924446106 19.23914408683777,6.52173924446106 19.23914408683777,7.0652172565460205 19.78262209892273,7.0652172565460205 19.78262209892273,7.60869574546814 19.78262209892273,7.60869574546814 19.78262209892273,8.1521737575531 20.32610011100769,8.695651769638062 20.32610011100769,8.695651769638062 20.32610011100769,9.239129781723022 20.32610011100769,9.239129781723022 20.32610011100769,9.7826087474823 20.86957812309265,9.7826087474823 20.86957812309265,10.32608675956726 20.86957812309265,10.869564771652222 20.86957812309265,10.869564771652222 21.413056135177612,11.413043737411499 21.413056135177612,11.95652174949646 21.413056135177612,11.95652174949646 21.413056135177612,11.95652174949646 21.413056135177612,12.499999761581421 21.956534147262573,12.499999761581421 21.956534147262573,13.043477773666382 21.956534147262573,13.043477773666382 21.956534147262573,13.586955785751343 21.956534147262573,13.586955785751343 21.956534147262573,13.586955785751343 21.956534147262573,14.13043475151062 22.500012159347534,14.13043475151062 22.500012159347534,14.673912763595581 22.500012159347534,14.673912763595581 22.500012159347534,15.217390775680542 22.500012159347534,15.217390775680542 22.500012159347534,15.76086974143982 22.500012159347534,15.76086974143982 23.043490171432495,16.30434775352478 23.043490171432495,16.84782576560974 23.043490171432495,17.391303777694702 23.043490171432495,17.391303777694702 23.043490171432495,17.934781789779663 23.58697009086609,17.934781789779663 23.58697009086609,17.934781789779663 23.58697009086609,18.478259801864624 23.58697009086609,18.478259801864624 23.58697009086609,19.021737813949585 23.58697009086609,19.56521773338318 23.58697009086609,19.56521773338318 23.58697009086609,20.10869574546814 23.58697009086609,20.10869574546814 23.58697009086609,20.6521737575531 23.58697009086609,21.19565176963806 23.58697009086609,21.19565176963806 23.58697009086609,21.739129781723022 23.58697009086609,21.739129781723022 23.58697009086609,22.282607793807983 23.58697009086609,22.282607793807983 23.58697009086609,22.826085805892944 23.58697009086609,22.826085805892944 23.58697009086609,23.369565725326538 23.58697009086609,23.9130437374115 23.58697009086609,24.45652174949646 23.58697009086609,24.45652174949646 23.58697009086609,24.99999976158142 23.58697009086609,25.543477773666382 23.58697009086609,25.543477773666382 23.58697009086609,26.086955785751343 23.58697009086609,26.630433797836304 23.58697009086609,26.630433797836304 23.58697009086609,26.630433797836304 23.58697009086609,27.173911809921265 23.58697009086609,27.71739172935486 23.58697009086609,28.26086974143982 23.58697009086609,28.26086974143982 23.58697009086609,28.80434775352478 23.58697009086609,28.80434775352478 23.58697009086609,29.34782576560974 23.58697009086609,29.34782576560974 23.58697009086609,29.891303777694702 23.58697009086609,29.891303777694702 23.043490171432495,30.434781789779663 23.043490171432495,30.434781789779663 23.043490171432495,30.434781789779663 23.043490171432495,30.978259801864624 23.043490171432495,31.521737813949585 23.043490171432495,31.521737813949585 23.043490171432495,32.06521773338318 23.043490171432495,32.06521773338318 22.500012159347534,32.60869383811951 22.500012159347534,32.60869383811951 22.500012159347534,33.1521737575531 22.500012159347534,33.1521737575531 22.500012159347534,33.69564986228943 21.956534147262573,34.23912978172302 21.956534147262573,34.23912978172302 21.956534147262573,34.782609701156616 21.413056135177612,35.326085805892944 21.413056135177612,35.86956572532654 21.413056135177612,35.86956572532654 20.86957812309265,36.413041830062866 20.86957812309265,36.95652174949646 20.86957812309265,37.49999785423279 20.32610011100769,38.04347777366638 20.32610011100769,38.586957693099976 20.32610011100769,38.586957693099976 20.32610011100769,39.130433797836304 19.78262209892273,39.6739137172699 19.78262209892273,39.6739137172699 19.78262209892273,39.6739137172699 19.78262209892273,40.217389822006226 19.78262209892273,40.76086974143982 19.23914408683777,40.76086974143982 19.23914408683777,41.30434584617615 19.23914408683777,41.84782576560974 18.695664167404175,42.39130187034607 18.695664167404175,42.39130187034607 18.695664167404175,42.39130187034607 18.695664167404175,42.93478178977966 18.695664167404175,42.93478178977966 18.695664167404175,43.47826170921326 18.152186155319214,44.021737813949585 18.152186155319214,44.021737813949585 18.152186155319214,44.56521773338318 18.152186155319214,44.56521773338318 18.152186155319214,45.10869383811951 18.152186155319214,45.10869383811951 18.152186155319214,45.6521737575531 17.608708143234253,46.19564986228943 17.608708143234253,46.19564986228943 17.608708143234253,46.73912978172302 17.608708143234253,46.73912978172302 17.608708143234253,47.282609701156616 17.608708143234253,47.282609701156616 17.608708143234253,47.826085805892944 17.065230131149292,47.826085805892944 17.065230131149292,48.36956572532654 17.065230131149292,48.913041830062866 17.065230131149292,48.913041830062866 17.065230131149292,49.45652174949646 17.065230131149292,49.45652174949646 17.065230131149292,49.99999785423279 17.065230131149292,50.54347777366638 17.065230131149292,50.54347777366638 16.52175211906433,51.08695387840271 16.52175211906433,51.630433797836304 16.52175211906433,51.630433797836304 16.52175211906433,52.1739137172699 16.52175211906433,52.717389822006226 16.52175211906433,52.717389822006226 16.52175211906433,53.26086974143982 16.52175211906433,53.26086974143982 16.52175211906433,53.80434584617615 16.52175211906433,54.34782576560974 16.52175211906433,54.34782576560974 16.52175211906433,55.43478178977966 15.97827410697937,55.43478178977966 15.97827410697937,55.97825789451599 15.97827410697937,55.97825789451599 16.52175211906433,56.521737813949585 16.52175211906433,56.521737813949585 16.52175211906433,57.06521773338318 16.52175211906433,57.06521773338318 16.52175211906433,57.60869383811951 16.52175211906433,57.60869383811951 16.52175211906433,57.60869383811951 16.52175211906433,58.1521737575531 16.52175211906433,58.1521737575531 16.52175211906433,58.69564986228943 17.065230131149292,59.23912978172302 17.065230131149292,59.78260588645935 17.065230131149292,59.78260588645935 17.065230131149292,59.78260588645935 17.065230131149292,60.326085805892944 17.608708143234253,60.86956572532654 17.608708143234253,60.86956572532654 17.608708143234253,60.86956572532654 17.608708143234253,61.413041830062866 17.608708143234253,61.413041830062866 17.608708143234253,61.95652174949646 17.608708143234253,62.49999785423279 18.152186155319214,62.49999785423279 18.152186155319214,62.49999785423279 18.152186155319214,63.04347777366638 18.152186155319214,63.04347777366638 18.152186155319214,63.58695387840271 18.152186155319214,63.58695387840271 18.695664167404175,64.1304337978363 18.695664167404175,64.6739137172699 18.695664167404175,64.6739137172699 18.695664167404175,64.6739137172699 18.695664167404175,65.21739363670349 18.695664167404175,65.21739363670349 18.695664167404175,65.76086592674255 19.23914408683777,65.76086592674255 19.23914408683777,66.30434584617615 19.23914408683777,66.30434584617615 19.23914408683777,66.84782576560974 19.23914408683777,67.39130568504333 19.78262209892273,67.39130568504333 19.78262209892273,67.39130568504333 19.78262209892273,67.9347779750824 19.78262209892273,67.9347779750824 19.78262209892273,68.47825789451599 20.32610011100769,69.02173781394958 20.32610011100769,69.56521773338318 20.32610011100769,70.10869765281677 20.32610011100769,71.19564986228943 20.32610011100769,71.73912978172302 20.86957812309265,72.28260970115662 20.86957812309265,72.82608199119568 20.86957812309265,73.36956191062927 20.86957812309265,73.91304183006287 21.413056135177612,73.91304183006287 21.413056135177612,74.45652174949646 21.413056135177612,75.00000166893005 21.413056135177612,75.00000166893005 21.956534147262573,75.54347395896912 21.956534147262573,75.54347395896912 21.956534147262573,76.08695387840271 21.956534147262573,76.08695387840271 21.956534147262573,76.6304337978363 21.956534147262573,76.6304337978363 21.956534147262573,76.6304337978363 21.956534147262573,77.1739137172699 22.500012159347534,77.71739363670349 22.500012159347534,78.26086592674255 22.500012159347534,78.26086592674255 22.500012159347534,78.80434584617615 22.500012159347534,78.80434584617615 22.500012159347534,79.34782576560974 22.500012159347534,79.89130568504333 22.500012159347534,79.89130568504333 23.043490171432495,80.4347779750824 23.043490171432495,80.97825789451599 23.043490171432495,80.97825789451599 23.043490171432495,81.52173781394958 23.043490171432495,82.06521773338318 23.043490171432495,82.60869765281677 23.043490171432495,83.15216994285583 23.043490171432495,83.15216994285583 23.043490171432495,83.69564986228943 23.043490171432495,84.23912978172302 23.58697009086609,84.78260970115662 23.58697009086609,85.32608199119568 23.58697009086609,85.86956191062927 23.58697009086609,85.86956191062927 23.58697009086609,86.41304183006287 23.58697009086609,86.41304183006287 23.58697009086609,86.95652174949646 23.58697009086609,86.95652174949646 23.58697009086609,87.50000166893005 23.58697009086609,87.50000166893005 23.58697009086609,88.04347395896912 23.58697009086609,88.04347395896912 23.58697009086609,88.58695387840271 23.58697009086609,88.58695387840271 23.58697009086609,88.58695387840271 23.58697009086609,89.1304337978363 23.58697009086609,89.1304337978363 23.58697009086609,89.6739137172699 23.58697009086609,89.6739137172699 23.58697009086609,89.6739137172699 23.58697009086609,90.21738600730896 23.58697009086609,90.21738600730896 23.58697009086609,90.21738600730896 23.58697009086609,90.21738600730896 23.58697009086609,90.76086592674255 23.043490171432495,90.76086592674255 23.043490171432495,91.30434584617615 23.043490171432495,91.30434584617615 23.043490171432495,91.30434584617615 23.043490171432495,91.84782576560974 23.043490171432495,91.84782576560974 23.043490171432495,91.84782576560974 23.043490171432495,92.39130568504333 23.043490171432495,92.39130568504333 22.500012159347534,92.9347779750824 22.500012159347534,92.9347779750824 22.500012159347534,92.9347779750824 22.500012159347534,93.47825789451599 22.500012159347534,93.47825789451599 22.500012159347534,94.02173781394958 22.500012159347534,94.02173781394958 22.500012159347534,94.02173781394958 22.500012159347534,94.56521773338318 22.500012159347534,94.56521773338318 21.956534147262573,95.10869765281677 21.956534147262573,95.10869765281677 21.956534147262573,95.65216994285583 21.956534147262573,95.65216994285583 21.956534147262573,96.19564986228943 21.956534147262573,96.19564986228943 21.413056135177612,96.19564986228943 21.413056135177612,96.73912978172302 21.413056135177612,96.73912978172302 21.413056135177612,96.73912978172302 21.413056135177612,97.28260970115662 20.86957812309265,97.82608199119568 20.86957812309265,97.82608199119568 20.86957812309265,97.82608199119568 20.86957812309265,98.36956191062927 20.32610011100769,98.36956191062927 20.32610011100769,98.91304183006287 20.32610011100769,98.91304183006287 19.78262209892273,98.91304183006287 19.78262209892273,99.45652174949646 19.78262209892273,99.45652174949646 19.78262209892273,99.45652174949646 19.78262209892273,99.45652174949646 19.78262209892273,99.45652174949646 19.78262209892273,100.00000166893005 19.78262209892273,100.00000166893005 19.78262209892273,100.00000166893005 19.78262209892273,100.00000166893005 19.78262209892273,100.00000166893005 19.78262209892273,100.54347395896912 19.78262209892273,100.54347395896912 19.78262209892273,100.54347395896912 19.78262209892273,100.54347395896912 19.23914408683777,101.08695387840271 19.23914408683777,101.08695387840271 19.23914408683777,101.08695387840271 19.23914408683777,101.08695387840271 19.23914408683777,101.6304337978363 19.23914408683777,101.6304337978363 19.23914408683777,101.6304337978363 19.23914408683777,101.6304337978363 19.23914408683777,101.6304337978363 19.23914408683777,102.1739137172699 19.23914408683777,102.1739137172699 19.23914408683777,102.1739137172699 19.23914408683777,102.1739137172699 19.23914408683777,102.71738600730896 19.23914408683777,102.71738600730896 19.23914408683777,102.71738600730896 19.23914408683777,102.71738600730896 19.23914408683777,102.71738600730896 " style="color: rgb(140, 237, 111);" class="" transform="rotate(0.9669251441955566 19.78262138366634,51.35869216918939) "/><path fill="none" stroke="#8ced6f" stroke-width="2" stroke-linejoin="round" stroke-dashoffset="" fill-rule="nonzero" marker-start="" marker-mid="" marker-end="" id="svg_19" d="M19.99843858959136,70.40578196115617 C20.460619062278155,68.8924830238397 21.09321705779364,67.61087574528099 21.69327627962899,66.97214243703428 C22.336143154906523,66.28784150697092 22.05092513776458,65.99101364856853 21.387755585101992,66.65418462023817 C21.10875187207402,66.93318644125702 21.029036795781575,66.73060050554284 21.029036795781575,65.74254365250442 C21.029036795781575,63.38511867562583 22.251080314699394,61.926412716862146 25.19138223214945,60.77412000795084 C27.679313744451534,59.79910477411096 29.513554670025282,58.70263721472341 30.274070459419317,57.73579971751208 L30.89379664355912,56.94794250362379 L30.89379664355912,58.318736256372475 C30.89379664355912,60.0137432812307 30.367921682214323,62.57448829338084 29.785825668427076,63.713994331328855 C29.16832590607638,64.92281128715189 27.05176977842752,67.1541087838276 26.013141412323794,67.69120335954152 C25.082622450108893,68.17239615936057 23.095332172871224,68.31405656183476 22.033218769961067,67.97490635034197 C21.50392400204413,67.80589600933241 21.335942441019967,67.93502847309722 21.061689563014124,68.72175048148435 C20.879318799261053,69.24489953061976 20.73010549618626,69.98916059624472 20.73010549618626,70.37565786417727 C20.73010549618626,70.81443938647473 20.55412168238383,71.07837844950078 20.26156266966798,71.07837844950078 C19.914090455847536,71.07837844950078 19.846100160372437,70.90458369030634 19.998439062593658,70.40578196115617 L19.99843858959136,70.40578196115617 z" style="color: rgb(140, 237, 111);" class="" transform="rotate(-1.0074501037597656 25.40776443481439,64.01316070556639) "/></g></svg>